<svg width="45" height="45" viewBox="0 0 45 45" fill="none" xmlns="http://www.w3.org/2000/svg">
<path d="M22.6875 33.4219C23.1875 33.4219 23.6094 33.25 23.9531 32.9062C24.2969 32.5625 24.4688 32.1406 24.4688 31.6406C24.4688 31.1406 24.2969 30.7188 23.9531 30.375C23.6094 30.0312 23.1875 29.8594 22.6875 29.8594C22.1875 29.8594 21.7656 30.0312 21.4219 30.375C21.0781 30.7188 20.9062 31.1406 20.9062 31.6406C20.9062 32.1406 21.0781 32.5625 21.4219 32.9062C21.7656 33.25 22.1875 33.4219 22.6875 33.4219ZM21.0469 26.5781H23.8125C23.8125 25.7656 23.9141 25.0234 24.1172 24.3516C24.3203 23.6797 24.9531 22.9062 26.0156 22.0312C26.9844 21.2188 27.6719 20.4219 28.0781 19.6406C28.4844 18.8594 28.6875 18 28.6875 17.0625C28.6875 15.4062 28.1484 14.0781 27.0703 13.0781C25.9922 12.0781 24.5625 11.5781 22.7812 11.5781C21.25 11.5781 19.8984 11.9609 18.7266 12.7266C17.5547 13.4922 16.7031 14.5469 16.1719 15.8906L18.6562 16.8281C19 15.9531 19.5156 15.2734 20.2031 14.7891C20.8906 14.3047 21.7031 14.0625 22.6406 14.0625C23.7031 14.0625 24.5625 14.3516 25.2188 14.9297C25.875 15.5078 26.2031 16.25 26.2031 17.1562C26.2031 17.8438 26 18.4922 25.5938 19.1016C25.1875 19.7109 24.5938 20.3438 23.8125 21C22.875 21.8125 22.1797 22.6172 21.7266 23.4141C21.2734 24.2109 21.0469 25.2656 21.0469 26.5781ZM22.5 41.25C19.9375 41.25 17.5156 40.7578 15.2344 39.7734C12.9531 38.7891 10.9609 37.4453 9.25781 35.7422C7.55469 34.0391 6.21094 32.0469 5.22656 29.7656C4.24219 27.4844 3.75 25.0625 3.75 22.5C3.75 19.9062 4.24219 17.4688 5.22656 15.1875C6.21094 12.9062 7.55469 10.9219 9.25781 9.23438C10.9609 7.54688 12.9531 6.21094 15.2344 5.22656C17.5156 4.24219 19.9375 3.75 22.5 3.75C25.0938 3.75 27.5312 4.24219 29.8125 5.22656C32.0938 6.21094 34.0781 7.54688 35.7656 9.23438C37.4531 10.9219 38.7891 12.9062 39.7734 15.1875C40.7578 17.4688 41.25 19.9062 41.25 22.5C41.25 25.0625 40.7578 27.4844 39.7734 29.7656C38.7891 32.0469 37.4531 34.0391 35.7656 35.7422C34.0781 37.4453 32.0938 38.7891 29.8125 39.7734C27.5312 40.7578 25.0938 41.25 22.5 41.25ZM22.5 38.4375C26.9375 38.4375 30.7031 36.8828 33.7969 33.7734C36.8906 30.6641 38.4375 26.9062 38.4375 22.5C38.4375 18.0625 36.8906 14.2969 33.7969 11.2031C30.7031 8.10938 26.9375 6.5625 22.5 6.5625C18.0938 6.5625 14.3359 8.10938 11.2266 11.2031C8.11719 14.2969 6.5625 18.0625 6.5625 22.5C6.5625 26.9062 8.11719 30.6641 11.2266 33.7734C14.3359 36.8828 18.0938 38.4375 22.5 38.4375Z" fill="white"/>
</svg>
