<svg width="70" height="70" viewBox="0 0 70 70" fill="none" xmlns="http://www.w3.org/2000/svg">
<path d="M20.4167 52.5C15.5556 52.5 11.4236 50.7986 8.02085 47.3958C4.61808 43.9931 2.91669 39.8611 2.91669 35C2.91669 30.1389 4.61808 26.0069 8.02085 22.6042C11.4236 19.2014 15.5556 17.5 20.4167 17.5H49.5834C54.4445 17.5 58.5764 19.2014 61.9792 22.6042C65.382 26.0069 67.0834 30.1389 67.0834 35C67.0834 39.8611 65.382 43.9931 61.9792 47.3958C58.5764 50.7986 54.4445 52.5 49.5834 52.5H20.4167ZM20.4167 48.125H49.5834C53.2292 48.125 56.3281 46.849 58.8802 44.2969C61.4323 41.7448 62.7084 38.6458 62.7084 35C62.7084 31.3542 61.4323 28.2552 58.8802 25.7031C56.3281 23.151 53.2292 21.875 49.5834 21.875H20.4167C16.7709 21.875 13.6719 23.151 11.1198 25.7031C8.56773 28.2552 7.29169 31.3542 7.29169 35C7.29169 38.6458 8.56773 41.7448 11.1198 44.2969C13.6719 46.849 16.7709 48.125 20.4167 48.125ZM20.3395 42.3646C22.384 42.3646 24.1233 41.649 25.5573 40.2178C26.9913 38.7867 27.7084 37.0488 27.7084 35.0043C27.7084 32.9598 26.9928 31.2205 25.5616 29.7865C24.1305 28.3524 22.3926 27.6354 20.3481 27.6354C18.3035 27.6354 16.5643 28.351 15.1302 29.7822C13.6962 31.2133 12.9792 32.9512 12.9792 34.9957C12.9792 37.0402 13.6948 38.7795 15.1259 40.2135C16.5571 41.6476 18.2949 42.3646 20.3395 42.3646Z" fill="#1F2E59"/>
</svg>
