<svg width="40" height="32" viewBox="0 0 40 32" fill="none" xmlns="http://www.w3.org/2000/svg">
<path d="M24.5 32V29H30.5C31.2 29 31.7917 28.7604 32.275 28.2812C32.7583 27.8021 33 27.2083 33 26.5V21.5C33 20.2667 33.375 19.1667 34.125 18.2C34.875 17.2333 35.8333 16.5667 37 16.2V15.8C35.8333 15.4667 34.875 14.8083 34.125 13.825C33.375 12.8417 33 11.7333 33 10.5V5.5C33 4.79167 32.7604 4.19792 32.2812 3.71875C31.8021 3.23958 31.2083 3 30.5 3H24.5V0H30.5C32.0333 0 33.3333 0.534717 34.4 1.60415C35.4667 2.67362 36 3.97223 36 5.5V10.5C36 11.2083 36.2396 11.8021 36.7188 12.2812C37.1979 12.7604 37.7917 13 38.5 13H40V19H38.5C37.7917 19 37.1979 19.2396 36.7188 19.7188C36.2396 20.1979 36 20.7917 36 21.5V26.5C36 28.0278 35.4653 29.3264 34.3959 30.3958C33.3264 31.4653 32.0278 32 30.5 32H24.5ZM9.5 32C7.96667 32 6.66667 31.4653 5.6 30.3958C4.53333 29.3264 4 28.0278 4 26.5V21.5C4 20.7917 3.76042 20.1979 3.28125 19.7188C2.80208 19.2396 2.20833 19 1.5 19H0V13H1.5C2.20833 13 2.80208 12.7604 3.28125 12.2812C3.76042 11.8021 4 11.2083 4 10.5V5.5C4 3.97223 4.53472 2.67362 5.60415 1.60415C6.67362 0.534717 7.97223 0 9.5 0H15.5V3H9.5C8.8 3 8.20833 3.23958 7.725 3.71875C7.24167 4.19792 7 4.79167 7 5.5V10.5C7 11.7333 6.625 12.8417 5.875 13.825C5.125 14.8083 4.16667 15.4667 3 15.8V16.2C4.16667 16.5667 5.125 17.2333 5.875 18.2C6.625 19.1667 7 20.2667 7 21.5V26.5C7 27.2083 7.23958 27.8021 7.71875 28.2812C8.19792 28.7604 8.79167 29 9.5 29H15.5V32H9.5Z" fill="#FBFBF8"/>
</svg>
